<svg width="17" height="16" fill="none" xmlns="http://www.w3.org/2000/svg"><g clip-path="url('#clip0_1_549')"><path d="M15.216 10.502c-.98 0-1.941-.153-2.853-.454-.446-.153-.995-.013-1.268.267l-1.799 1.358C7.21 10.56 5.924 9.275 4.826 7.204l1.318-1.752c.343-.342.465-.842.318-1.31a9.098 9.098 0 0 1-.456-2.858C6.006.576 5.43 0 4.722 0H1.784C1.076 0 .5.576.5 1.284.5 9.398 7.102 16 15.216 16c.708 0 1.284-.576 1.284-1.284v-2.93c0-.708-.576-1.284-1.284-1.284Z" fill="#fff"/></g><defs><clipPath id="clip0_1_549"><path fill="#fff" transform="translate(.5)" d="M0 0h16v16H0z"/></clipPath></defs></svg>