<svg width="17" height="16" viewBox="0 0 17 16" fill="none" xmlns="http://www.w3.org/2000/svg">
<g clip-path="url(#clip0_1_549)">
<path d="M15.2162 10.5022C14.2366 10.5022 13.2747 10.349 12.3633 10.0478C11.9167 9.89542 11.3676 10.0352 11.095 10.3151L9.296 11.6732C7.20963 10.5595 5.92446 9.27475 4.82596 7.20404L6.14408 5.45188C6.48654 5.10988 6.60938 4.61029 6.46221 4.14154C6.15971 3.22529 6.00604 2.26392 6.00604 1.28392C6.00608 0.575958 5.43013 0 4.72221 0H1.78387C1.07596 0 0.5 0.575958 0.5 1.28387C0.5 9.39846 7.10158 16 15.2162 16C15.9241 16 16.5 15.424 16.5 14.7161V11.786C16.5 11.0781 15.924 10.5022 15.2162 10.5022Z" fill="white"/>
</g>
<defs>
<clipPath id="clip0_1_549">
<rect width="16" height="16" fill="white" transform="translate(0.5)"/>
</clipPath>
</defs>
</svg>
